<?xml version="1.0" encoding="UTF-8"?>
<svg width="140px" height="44px" viewBox="0 0 140 44" version="1.1" xmlns="http://www.w3.org/2000/svg" xmlns:xlink="http://www.w3.org/1999/xlink">
    <!-- Generator: Sketch 52.6 (67491) - http://www.bohemiancoding.com/sketch -->
    <title>logo1</title>
    <desc>Created with Sketch.</desc>
    <defs>
        <polygon id="path-1" points="0 43.0434783 139.352783 43.0434783 139.352783 0.154956522 0 0.154956522"></polygon>
    </defs>
    <g id="Page-1" stroke="none" stroke-width="1" fill="none" fill-rule="evenodd">
        <g id="Home-" transform="translate(-360.000000, -13.000000)">
            <g id="logo1" transform="translate(360.000000, 13.000000)">
                <polygon id="Fill-1" fill="#FFFFFF" points="0.146347826 3.8214 0.146347826 29.405487 19.3351304 29.405487 19.3351304 25.4215739 4.89834783 25.4215739 4.89834783 18.3672261 17.2508696 18.3672261 17.2508696 14.4569652 4.89834783 14.4569652 4.89834783 7.80531304 18.8224348 7.80531304 18.8224348 3.8214"></polygon>
                <polygon id="Fill-2" fill="#FFFFFF" points="41.3735826 29.4052957 34.4292348 19.6822522 27.5575826 29.4052957 22.1484522 29.4052957 31.6514957 16.3573826 22.6601913 3.8212087 28.0329739 3.8212087 34.5746261 12.9215565 41.0445391 3.8212087 46.1973217 3.8212087 37.2433217 16.174687 46.8563652 29.4052957"></polygon>
                <g id="分组" transform="translate(0.000000, 0.801470)">
                    <path d="M71.5249652,15.8109217 C71.5249652,10.584487 67.6874,6.82057391 62.5346174,6.82057391 C57.3808783,6.82057391 53.543313,10.584487 53.543313,15.8109217 C53.543313,21.038313 57.3808783,24.8031826 62.5346174,24.8031826 C67.6874,24.8031826 71.5249652,21.038313 71.5249652,15.8109217 M48.7559217,15.8109217 C48.7559217,8.2457913 54.6031391,2.65396522 62.5346174,2.65396522 C70.4651391,2.65396522 76.313313,8.20944348 76.313313,15.8109217 C76.313313,23.414313 70.4651391,28.9697913 62.5346174,28.9697913 C54.6031391,28.9697913 48.7559217,23.3779652 48.7559217,15.8109217" id="Fill-3" fill="#FFFFFF"></path>
                    <path d="M98.9003304,12.1199913 C98.9003304,8.9032087 96.7433739,7.04086087 92.5767652,7.04086087 L87.021287,7.04086087 L87.021287,17.2010348 L92.5767652,17.2010348 C96.7433739,17.2010348 98.9003304,15.3367739 98.9003304,12.1199913 M103.687722,12.1199913 C103.687722,17.7491217 99.521113,21.2203391 92.7958087,21.2203391 L87.021287,21.2203391 L87.021287,28.6037304 L82.2702435,28.6037304 L82.2702435,3.01964348 L92.7958087,3.01964348 C99.521113,3.01964348 103.687722,6.45451304 103.687722,12.1199913" id="Fill-5" fill="#FFFFFF"></path>
                    <path d="M107.56087,25.8984 L109.206087,22.2071826 C111.252087,23.8524 114.505217,25.0231826 117.648348,25.0231826 C121.632261,25.0231826 123.31287,23.5960522 123.31287,21.6964 C123.31287,16.1772696 108.108957,19.7948348 108.108957,10.2917913 C108.108957,6.16344348 111.398435,2.65396522 118.415478,2.65396522 C121.485913,2.65396522 124.702696,3.45744348 126.931391,4.9190087 L125.433478,8.61213913 C123.13113,7.25866087 120.608783,6.60057391 118.37913,6.60057391 C114.431565,6.60057391 112.823652,8.1357913 112.823652,10.0737043 C112.823652,15.5201391 127.991217,11.9733565 127.991217,21.3664 C127.991217,25.460313 124.665391,28.9697913 117.648348,28.9697913 C113.664435,28.9697913 109.680522,27.726313 107.56087,25.8984" id="Fill-7" fill="#FFFFFF"></path>
                    <polygon id="Fill-9" fill="#FFFFFF" points="131.262617 0.732026087 129.669052 0.732026087 129.669052 0.155243478 133.51427 0.155243478 133.51427 0.732026087 131.919748 0.732026087 131.919748 4.80202609 131.262617 4.80202609"></polygon>
                    <polygon id="Fill-11" fill="#FFFFFF" points="138.71507 4.80221739 138.708374 1.41517391 137.028722 4.23786957 136.723591 4.23786957 135.042983 1.43526087 135.042983 4.80221739 134.405939 4.80221739 134.405939 0.155434783 134.951157 0.155434783 136.890026 3.421 138.802113 0.155434783 139.346374 0.155434783 139.352113 4.80221739"></polygon>
                    <polygon id="Fill-13" fill="#FFFFFF" points="49.6191826 36.8760174 49.6191826 38.7039304 52.2410087 38.7039304 52.2410087 39.3486261 49.6191826 39.3486261 49.6191826 41.4721043 48.8721391 41.4721043 48.8721391 36.2217565 52.5624 36.2217565 52.5624 36.8760174"></polygon>
                    <path d="M56.5907913,39.4843565 C56.5907913,38.6378348 56.0235739,38.0907043 55.2621826,38.0907043 C54.4998348,38.0907043 53.9249652,38.6378348 53.9249652,39.4843565 C53.9249652,40.3327913 54.4998348,40.8875739 55.2621826,40.8875739 C56.0235739,40.8875739 56.5907913,40.3327913 56.5907913,39.4843565 M53.1999217,39.4843565 C53.1999217,38.2992261 54.0741826,37.4603565 55.2621826,37.4603565 C56.4501826,37.4603565 57.3158348,38.2992261 57.3158348,39.4843565 C57.3158348,40.669487 56.4501826,41.5179217 55.2621826,41.5179217 C54.0741826,41.5179217 53.1999217,40.669487 53.1999217,39.4843565" id="Fill-15" fill="#FFFFFF"></path>
                    <path d="M62.1830957,37.4969913 L62.1830957,41.4722957 L61.5039652,41.4722957 L61.5039652,40.8706435 C61.2122261,41.2848174 60.7196174,41.5172522 60.1590957,41.5172522 C59.1356174,41.5172522 58.4555304,40.9557739 58.4555304,39.7849913 L58.4555304,37.4969913 L59.1729217,37.4969913 L59.1729217,39.7027304 C59.1729217,40.4822957 59.5622261,40.8706435 60.2413565,40.8706435 C60.9874435,40.8706435 61.4657043,40.407687 61.4657043,39.5525565 L61.4657043,37.4969913 L62.1830957,37.4969913 Z" id="Fill-17" fill="#FFFFFF"></path>
                    <path d="M65.8612087,37.4603565 L65.8612087,38.1586174 C65.8009478,38.1490522 65.7483391,38.1490522 65.696687,38.1490522 C64.926687,38.1490522 64.4493826,38.6215739 64.4493826,39.4920087 L64.4493826,41.4720087 L63.7319913,41.4720087 L63.7319913,37.4967043 L64.4197304,37.4967043 L64.4197304,38.165313 C64.6732087,37.7004435 65.1658174,37.4603565 65.8612087,37.4603565" id="Fill-19" fill="#FFFFFF"></path>
                    <mask id="mask-2" fill="white">
                        <use xlink:href="#path-1"></use>
                    </mask>
                    <g id="Clip-22"></g>
                    <path d="M66.930658,41.471913 L67.6695742,41.471913 L67.6695742,37.4966087 L66.930658,37.4966087 L66.930658,41.471913 Z M66.8006087,36.2674783 C66.8006087,36.0063478 67.0163722,35.7949565 67.3011013,35.7949565 C67.5858304,35.7949565 67.8006087,35.9986957 67.8006087,36.2531304 C67.8006087,36.5228696 67.5937121,36.7333043 67.3011013,36.7333043 C67.0163722,36.7333043 66.8006087,36.5295652 66.8006087,36.2674783 Z" id="Fill-21" fill="#FFFFFF" mask="url(#mask-2)"></path>
                    <path d="M69.5475478,39.2078261 L72.087113,39.2078261 C72.0125043,38.5392174 71.5122435,38.0666957 70.8168522,38.0666957 C70.1300696,38.0666957 69.6221565,38.5315652 69.5475478,39.2078261 M72.7595478,39.7243478 L69.5475478,39.7243478 C69.6365043,40.4226087 70.1970261,40.8874783 70.9813739,40.8874783 C71.4443304,40.8874783 71.8326783,40.7296522 72.1234609,40.4073043 L72.5204174,40.8712174 C72.1617217,41.292087 71.6165043,41.5178261 70.9593739,41.5178261 C69.6814609,41.5178261 68.8301565,40.6693913 68.8301565,39.4842609 C68.8301565,38.3067826 69.6738087,37.4602609 70.8168522,37.4602609 C71.9598957,37.4602609 72.7738957,38.2847826 72.7738957,39.5062609 C72.7738957,39.5665217 72.7672,39.6564348 72.7595478,39.7243478" id="Fill-23" fill="#FFFFFF" mask="url(#mask-2)"></path>
                    <path d="M76.0796348,37.4603565 L76.0796348,38.1586174 C76.0203304,38.1490522 75.9667652,38.1490522 75.915113,38.1490522 C75.145113,38.1490522 74.6678087,38.6215739 74.6678087,39.4920087 L74.6678087,41.4720087 L73.9504174,41.4720087 L73.9504174,37.4967043 L74.6381565,37.4967043 L74.6381565,38.165313 C74.8916348,37.7004435 75.3842435,37.4603565 76.0796348,37.4603565" id="Fill-24" fill="#FFFFFF" mask="url(#mask-2)"></path>
                    <polygon id="Fill-25" fill="#FFFFFF" mask="url(#mask-2)" points="79.4955652 41.471913 80.2426087 41.471913 80.2426087 36.2225217 79.4955652 36.2225217"></polygon>
                    <path d="M85.6485826,39.1840087 L85.6485826,41.4720087 L84.9311913,41.4720087 L84.9311913,39.2662696 C84.9311913,38.4876609 84.5428435,38.1050522 83.8627565,38.1050522 C83.1013652,38.1050522 82.6078,38.5632261 82.6078,39.4240957 L82.6078,41.4720087 L81.8904087,41.4720087 L81.8904087,37.4967043 L82.5781478,37.4967043 L82.5781478,38.0974 C82.869887,37.6927913 83.3768435,37.4603565 84.0043217,37.4603565 C84.9694522,37.4603565 85.6485826,38.0151391 85.6485826,39.1840087" id="Fill-26" fill="#FFFFFF" mask="url(#mask-2)"></path>
                    <path d="M89.386287,41.2391913 C89.1691565,41.425713 88.840113,41.5175391 88.5196783,41.5175391 C87.7200261,41.5175391 87.2637652,41.0746696 87.2637652,40.2721478 L87.2637652,38.0903217 L86.592287,38.0903217 L86.592287,37.4972783 L87.2637652,37.4972783 L87.2637652,36.6268435 L87.9811565,36.6268435 L87.9811565,37.4972783 L89.1175043,37.4972783 L89.1175043,38.0903217 L87.9811565,38.0903217 L87.9811565,40.2424957 C87.9811565,40.6691043 88.2059391,40.9091913 88.6009826,40.9091913 C88.8114174,40.9091913 89.012287,40.8412783 89.1615043,40.7226696 L89.386287,41.2391913 Z" id="Fill-27" fill="#FFFFFF" mask="url(#mask-2)"></path>
                    <path d="M90.6538696,39.2078261 L93.1934348,39.2078261 C93.1188261,38.5392174 92.6185652,38.0666957 91.9231739,38.0666957 C91.2363913,38.0666957 90.7284783,38.5315652 90.6538696,39.2078261 M93.8658696,39.7243478 L90.6538696,39.7243478 C90.7428261,40.4226087 91.3033478,40.8874783 92.0876957,40.8874783 C92.5506522,40.8874783 92.939,40.7296522 93.2297826,40.4073043 L93.6267391,40.8712174 C93.2680435,41.292087 92.7228261,41.5178261 92.0656957,41.5178261 C90.7877826,41.5178261 89.9364783,40.6693913 89.9364783,39.4842609 C89.9364783,38.3067826 90.7801304,37.4602609 91.9231739,37.4602609 C93.0662174,37.4602609 93.8802174,38.2847826 93.8802174,39.5062609 C93.8802174,39.5665217 93.8735217,39.6564348 93.8658696,39.7243478" id="Fill-28" fill="#FFFFFF" mask="url(#mask-2)"></path>
                    <polygon id="Fill-29" fill="#FFFFFF" mask="url(#mask-2)" points="95.0562609 41.471913 95.7736522 41.471913 95.7736522 35.9068696 95.0562609 35.9068696"></polygon>
                    <polygon id="Fill-30" fill="#FFFFFF" mask="url(#mask-2)" points="97.3251304 41.471913 98.0425217 41.471913 98.0425217 35.9068696 97.3251304 35.9068696"></polygon>
                    <path d="M99.5987736,41.471913 L100.33769,41.471913 L100.33769,37.4966087 L99.5987736,37.4966087 L99.5987736,41.471913 Z M99.4677391,36.2674783 C99.4677391,36.0063478 99.6835027,35.7949565 99.9682317,35.7949565 C100.252961,35.7949565 100.467739,35.9986957 100.467739,36.2531304 C100.467739,36.5228696 100.260843,36.7333043 99.9682317,36.7333043 C99.6835027,36.7333043 99.4677391,36.5295652 99.4677391,36.2674783 Z" id="Fill-31" fill="#FFFFFF" mask="url(#mask-2)"></path>
                    <path d="M104.949661,39.38 C104.949661,38.6071304 104.381487,38.0906087 103.589487,38.0906087 C102.790791,38.0906087 102.223574,38.6071304 102.223574,39.38 C102.223574,40.1442609 102.790791,40.6770435 103.589487,40.6770435 C104.381487,40.6770435 104.949661,40.1442609 104.949661,39.38 Z M105.650791,37.4966087 L105.650791,40.9314783 C105.650791,42.3346957 104.942009,42.9717391 103.597139,42.9717391 C102.872096,42.9717391 102.140357,42.7689565 101.707052,42.3786957 L102.0514,41.823913 C102.417748,42.1386087 102.992617,42.3423478 103.575139,42.3423478 C104.508704,42.3423478 104.934357,41.9061739 104.934357,41.0070435 L104.934357,40.6913913 C104.590965,41.1036522 104.0754,41.3073913 103.508183,41.3073913 C102.365139,41.3073913 101.49853,40.5268696 101.49853,39.38 C101.49853,38.2331304 102.365139,37.4602609 103.508183,37.4602609 C104.098357,37.4602609 104.635922,37.6783478 104.971661,38.1126087 L104.971661,37.4966087 L105.650791,37.4966087 Z" id="Fill-32" fill="#FFFFFF" mask="url(#mask-2)"></path>
                    <path d="M107.551687,39.2078261 L110.091252,39.2078261 C110.016643,38.5392174 109.516383,38.0666957 108.820991,38.0666957 C108.134209,38.0666957 107.626296,38.5315652 107.551687,39.2078261 M110.763687,39.7243478 L107.551687,39.7243478 C107.640643,40.4226087 108.201165,40.8874783 108.985513,40.8874783 C109.44847,40.8874783 109.836817,40.7296522 110.1276,40.4073043 L110.524557,40.8712174 C110.165861,41.292087 109.620643,41.5178261 108.963513,41.5178261 C107.6856,41.5178261 106.834296,40.6693913 106.834296,39.4842609 C106.834296,38.3067826 107.677948,37.4602609 108.820991,37.4602609 C109.964035,37.4602609 110.778035,38.2847826 110.778035,39.5062609 C110.778035,39.5665217 110.771339,39.6564348 110.763687,39.7243478" id="Fill-33" fill="#FFFFFF" mask="url(#mask-2)"></path>
                    <path d="M115.712061,39.1840087 L115.712061,41.4720087 L114.99467,41.4720087 L114.99467,39.2662696 C114.99467,38.4876609 114.606322,38.1050522 113.926235,38.1050522 C113.164843,38.1050522 112.671278,38.5632261 112.671278,39.4240957 L112.671278,41.4720087 L111.953887,41.4720087 L111.953887,37.4967043 L112.641626,37.4967043 L112.641626,38.0974 C112.933365,37.6927913 113.440322,37.4603565 114.0678,37.4603565 C115.03293,37.4603565 115.712061,38.0151391 115.712061,39.1840087" id="Fill-34" fill="#FFFFFF" mask="url(#mask-2)"></path>
                    <path d="M116.879878,39.4843565 C116.879878,38.2992261 117.753183,37.4603565 118.970835,37.4603565 C119.680574,37.4603565 120.271704,37.7530522 120.584487,38.3068783 L120.03927,38.6598348 C119.784835,38.2695739 119.396487,38.0907043 118.963183,38.0907043 C118.186487,38.0907043 117.603965,38.6378348 117.603965,39.4843565 C117.603965,40.3471391 118.186487,40.8875739 118.963183,40.8875739 C119.396487,40.8875739 119.784835,40.7058348 120.03927,40.317487 L120.584487,40.6618348 C120.271704,41.2175739 119.680574,41.5179217 118.970835,41.5179217 C117.753183,41.5179217 116.879878,40.669487 116.879878,39.4843565" id="Fill-35" fill="#FFFFFF" mask="url(#mask-2)"></path>
                    <path d="M121.985791,39.2078261 L124.525357,39.2078261 C124.450748,38.5392174 123.950487,38.0666957 123.255096,38.0666957 C122.568313,38.0666957 122.0604,38.5315652 121.985791,39.2078261 M125.197791,39.7243478 L121.985791,39.7243478 C122.074748,40.4226087 122.63527,40.8874783 123.419617,40.8874783 C123.882574,40.8874783 124.270922,40.7296522 124.561704,40.4073043 L124.958661,40.8712174 C124.599965,41.292087 124.054748,41.5178261 123.397617,41.5178261 C122.119704,41.5178261 121.2684,40.6693913 121.2684,39.4842609 C121.2684,38.3067826 122.112052,37.4602609 123.255096,37.4602609 C124.398139,37.4602609 125.212139,38.2847826 125.212139,39.5062609 C125.212139,39.5665217 125.205443,39.6564348 125.197791,39.7243478" id="Fill-36" fill="#FFFFFF" mask="url(#mask-2)"></path>
                    <path d="M4.0106,38.1472348 C4.12825217,37.4001913 3.6939913,36.9745391 2.73746957,36.9745391 L1.46816522,36.9745391 L1.0979913,39.3218435 L2.36729565,39.3218435 C3.32381739,39.3218435 3.89294783,38.8942783 4.0106,38.1472348 M4.75573043,38.1472348 C4.57781739,39.2826261 3.64903478,39.9694087 2.28981739,39.9694087 L0.9966,39.9694087 L0.746947826,41.5524522 L-9.56521739e-05,41.5524522 L0.822513043,36.3260174 L2.86277391,36.3260174 C4.2219913,36.3260174 4.9346,37.0137565 4.75573043,38.1472348" id="Fill-37" fill="#FFFFFF" mask="url(#mask-2)"></path>
                    <path d="M8.71907826,39.5741739 C8.85203478,38.7295652 8.3689913,38.1853043 7.6076,38.1853043 C6.84525217,38.1853043 6.18525217,38.7295652 6.05229565,39.5741739 C5.91933913,40.4168696 6.40716522,40.9678261 7.16951304,40.9678261 C7.93186087,40.9678261 8.58612174,40.4168696 8.71907826,39.5741739 M5.32629565,39.5741739 C5.51281739,38.3947826 6.51716522,37.5578261 7.70612174,37.5578261 C8.89316522,37.5578261 9.62873043,38.3947826 9.4422087,39.5741739 C9.25664348,40.7535652 8.25707826,41.5962609 7.07003478,41.5962609 C5.88203478,41.5962609 5.14073043,40.7535652 5.32629565,39.5741739" id="Fill-38" fill="#FFFFFF" mask="url(#mask-2)"></path>
                    <polygon id="Fill-39" fill="#FFFFFF" mask="url(#mask-2)" points="16.809913 37.5958957 14.7074783 41.5520696 14.0197391 41.5520696 13.3492174 38.5524174 11.7193043 41.5520696 11.0325217 41.5520696 10.1831304 37.5958957 10.8641739 37.5958957 11.5193913 40.7447652 13.2086087 37.5958957 13.8131304 37.5958957 14.4893913 40.7610261 16.1671304 37.5958957"></polygon>
                    <path d="M17.6863739,39.2975478 L20.2249826,39.2975478 C20.2565478,38.6327652 19.8299391,38.1621565 19.1355043,38.1621565 C18.4487217,38.1621565 17.868113,38.625113 17.6863739,39.2975478 M20.8170696,39.8121565 L17.6060261,39.8121565 C17.5868957,40.5065913 18.0737652,40.9676348 18.858113,40.9676348 C19.3210696,40.9676348 19.734287,40.8126783 20.0757652,40.4922435 L20.3990696,40.9552 C19.9743739,41.3732 19.3928087,41.5960696 18.7366348,41.5960696 C17.4587217,41.5960696 16.7394174,40.7533739 16.9249826,39.5739826 C17.1095913,38.4022435 18.0862,37.5576348 19.2292435,37.5576348 C20.372287,37.5576348 21.0590696,38.3802435 20.8668087,39.5959826 C20.8582,39.6543304 20.834287,39.7461565 20.8170696,39.8121565" id="Fill-40" fill="#FFFFFF" mask="url(#mask-2)"></path>
                    <path d="M24.4904,37.5574435 L24.3813565,38.2537913 C24.3239652,38.2461391 24.2704,38.2461391 24.2197043,38.2461391 C23.4497043,38.2461391 22.8977913,38.7148348 22.7619652,39.5814435 L22.4520522,41.5528348 L21.7337043,41.5528348 L22.3564,37.5957043 L23.0431826,37.5957043 L22.9379652,38.260487 C23.2660522,37.7975304 23.7959652,37.5574435 24.4904,37.5574435" id="Fill-41" fill="#FFFFFF" mask="url(#mask-2)"></path>
                    <path d="M25.5958522,39.2975478 L28.1344609,39.2975478 C28.1660261,38.6327652 27.7394174,38.1621565 27.0449826,38.1621565 C26.3582,38.1621565 25.7775913,38.625113 25.5958522,39.2975478 M28.7265478,39.8121565 L25.5155043,39.8121565 C25.4963739,40.5065913 25.9832435,40.9676348 26.7675913,40.9676348 C27.2305478,40.9676348 27.6437652,40.8126783 27.9852435,40.4922435 L28.3085478,40.9552 C27.8838522,41.3732 27.302287,41.5960696 26.646113,41.5960696 C25.3682,41.5960696 24.6488957,40.7533739 24.8344609,39.5739826 C25.0190696,38.4022435 25.9956783,37.5576348 27.1387217,37.5576348 C28.2817652,37.5576348 28.9685478,38.3802435 28.776287,39.5959826 C28.7676783,39.6543304 28.7437652,39.7461565 28.7265478,39.8121565" id="Fill-42" fill="#FFFFFF" mask="url(#mask-2)"></path>
                    <path d="M32.9824,39.5741739 C33.1153565,38.7295652 32.6256174,38.1853043 31.8709217,38.1853043 C31.1085739,38.1853043 30.4485739,38.7295652 30.3156174,39.5741739 C30.1826609,40.4168696 30.670487,40.9678261 31.4328348,40.9678261 C32.1875304,40.9678261 32.8494435,40.4168696 32.9824,39.5741739 Z M34.2517043,36.0130435 L33.380313,41.5522609 L32.6925739,41.5522609 L32.7910957,40.9257391 C32.4008348,41.3733913 31.8556174,41.5962609 31.2730957,41.5962609 C30.1157043,41.5962609 29.3992696,40.7832174 29.5896174,39.5741739 C29.7799652,38.3651304 30.7517913,37.5578261 31.9091826,37.5578261 C32.4697043,37.5578261 32.9288348,37.7682609 33.1918783,38.1929565 L33.5352696,36.0130435 L34.2517043,36.0130435 Z" id="Fill-43" fill="#FFFFFF" mask="url(#mask-2)"></path>
                    <path d="M40.8038783,39.5741739 C40.9368348,38.7295652 40.4470957,38.1853043 39.6847478,38.1853043 C38.9319652,38.1853043 38.2719652,38.7295652 38.1390087,39.5741739 C38.0060522,40.4168696 38.4938783,40.9678261 39.2466609,40.9678261 C40.0090087,40.9678261 40.6709217,40.4168696 40.8038783,39.5741739 M41.5289217,39.5741739 C41.3385739,40.7832174 40.3657913,41.5962609 39.2084,41.5962609 C38.6258783,41.5962609 38.154313,41.3733913 37.9017913,40.9257391 L37.8032696,41.5522609 L37.116487,41.5522609 L37.9888348,36.0130435 L38.7062261,36.0130435 L38.3628348,38.1929565 C38.7578783,37.7682609 39.2839652,37.5578261 39.844487,37.5578261 C41.0018783,37.5578261 41.7192696,38.3651304 41.5289217,39.5741739" id="Fill-44" fill="#FFFFFF" mask="url(#mask-2)"></path>
                    <path d="M46.409,37.5958957 L43.8043913,41.9480696 C43.3203913,42.783113 42.823,43.043287 42.2184783,43.043287 C41.8377826,43.043287 41.4695217,42.9170261 41.2600435,42.6788522 L41.6512609,42.1422435 C41.8176957,42.3268522 42.0463043,42.4339826 42.3160435,42.4339826 C42.6584783,42.4339826 42.9004783,42.2761565 43.1663913,41.8198957 L43.3366522,41.5453739 L42.2108261,37.5958957 L42.9578696,37.5958957 L43.8407391,40.7610261 L45.7059565,37.5958957 L46.409,37.5958957 Z" id="Fill-45" fill="#FFFFFF" mask="url(#mask-2)"></path>
                </g>
            </g>
        </g>
    </g>
</svg>