<?xml version="1.0" encoding="UTF-8"?>
<svg width="184px" height="58px" viewBox="0 0 184 58" version="1.1" xmlns="http://www.w3.org/2000/svg" xmlns:xlink="http://www.w3.org/1999/xlink">
    <!-- Generator: Sketch 53.2 (72643) - https://sketchapp.com -->
    <title>logo2</title>
    <desc>Created with Sketch.</desc>
    <defs>
        <polygon id="path-1" points="3.0348345e-05 56.6510692 183.566406 56.6510692 183.566406 0.154956522 3.0348345e-05 0.154956522"></polygon>
    </defs>
    <g id="Page-1" stroke="none" stroke-width="1" fill="none" fill-rule="evenodd">
        <g id="Home-" transform="translate(-868.000000, -7025.000000)">
            <g id="logo2" transform="translate(868.000000, 7025.000000)">
                <polygon id="Fill-1" fill="#3B3838" points="0.192811142 4.73039363 0.192811142 38.4317524 25.4697752 38.4317524 25.4697752 33.1838308 6.45251692 33.1838308 6.45251692 23.8912925 22.7242239 23.8912925 22.7242239 18.7403913 6.45251692 18.7403913 6.45251692 9.97831524 24.7944124 9.97831524 24.7944124 4.73039363"></polygon>
                <polygon id="Fill-2" fill="#3B3838" points="54.5005468 38.4315004 45.3529091 25.6235477 36.3010318 38.4315004 29.1757025 38.4315004 41.693854 21.2437696 29.8498053 4.73014163 36.9272544 4.73014163 45.5444299 16.717831 54.067105 4.73014163 60.8547529 4.73014163 49.0598444 21.0031086 61.7228965 38.4315004"></polygon>
                <g id="分组" transform="translate(0.000000, 0.801470)">
                    <path d="M94.2183043,20.7782174 C94.2183043,13.8935491 89.1631635,8.93542868 82.3755156,8.93542868 C75.5866076,8.93542868 70.5314668,13.8935491 70.5314668,20.7782174 C70.5314668,27.6641458 75.5866076,32.6235262 82.3755156,32.6235262 C89.1631635,32.6235262 94.2183043,27.6641458 94.2183043,20.7782174 M64.2251408,20.7782174 C64.2251408,10.8128364 71.9275525,3.44684608 82.3755156,3.44684608 C92.8222186,3.44684608 100.52589,10.7649562 100.52589,20.7782174 C100.52589,30.7939987 92.8222186,38.1121088 82.3755156,38.1121088 C71.9275525,38.1121088 64.2251408,30.7461185 64.2251408,20.7782174" id="Fill-3" fill="#3B3838"></path>
                    <path d="M130.279275,15.9162354 C130.279275,11.678838 127.437963,9.22560787 121.949381,9.22560787 L114.63127,9.22560787 L114.63127,22.609383 L121.949381,22.609383 C127.437963,22.609383 130.279275,20.1536329 130.279275,15.9162354 M136.585601,15.9162354 C136.585601,23.331366 131.097018,27.9039248 122.237922,27.9039248 L114.63127,27.9039248 L114.63127,37.6299048 L108.372825,37.6299048 L108.372825,3.92854606 L122.237922,3.92854606 C131.097018,3.92854606 136.585601,8.45322469 136.585601,15.9162354" id="Fill-5" fill="#3B3838"></path>
                    <path d="M141.687614,34.0662322 L143.854823,29.2038721 C146.549974,31.3710811 150.835251,32.9133274 154.975629,32.9133274 C160.22355,32.9133274 162.437379,31.0333997 162.437379,28.5310294 C162.437379,21.2607994 142.409597,26.0261391 142.409597,13.5079875 C142.409597,8.06980511 146.742755,3.44684608 155.986153,3.44684608 C160.030769,3.44684608 164.268167,4.50525044 167.203979,6.43053836 L165.230811,11.2954184 C162.197978,9.51251105 158.875345,8.64562749 155.938272,8.64562749 C150.738231,8.64562749 148.620162,10.6679358 148.620162,13.2207063 C148.620162,20.3951759 168.600065,15.7230766 168.600065,28.0963276 C168.600065,33.4891498 164.219027,38.1121088 154.975629,38.1121088 C149.727707,38.1121088 144.479785,36.4741021 141.687614,34.0662322" id="Fill-7" fill="#3B3838"></path>
                    <polygon id="Fill-9" fill="#3B3838" points="172.909408 0.915117652 170.81024 0.915117652 170.81024 0.155334523 175.875461 0.155334523 175.875461 0.915117652 173.775032 0.915117652 173.775032 6.27643973 172.909408 6.27643973"></polygon>
                    <polygon id="Fill-11" fill="#3B3838" points="182.726361 6.27669173 182.717541 1.81501336 180.504972 5.53328867 180.10303 5.53328867 177.889201 1.84147347 177.889201 6.27669173 177.050037 6.27669173 177.050037 0.155586524 177.76824 0.155586524 180.322271 4.45724424 182.841021 0.155586524 183.557964 0.155586524 183.565524 6.27669173"></polygon>
                    <polygon id="Fill-13" fill="#3B3838" points="65.3622955 48.5268077 65.3622955 50.9346776 68.8159697 50.9346776 68.8159697 51.7839211 65.3622955 51.7839211 65.3622955 54.5811326 64.3782314 54.5811326 64.3782314 47.6649642 69.2393315 47.6649642 69.2393315 48.5268077"></polygon>
                    <path d="M74.5458433,51.9627159 C74.5458433,50.8476113 73.7986602,50.1268883 72.7956961,50.1268883 C71.791472,50.1268883 71.0342089,50.8476113 71.0342089,51.9627159 C71.0342089,53.0803405 71.791472,53.8111435 72.7956961,53.8111435 C73.7986602,53.8111435 74.5458433,53.0803405 74.5458433,51.9627159 M70.0791249,51.9627159 C70.0791249,50.4015694 71.2307697,49.2965449 72.7956961,49.2965449 C74.3606226,49.2965449 75.5009273,50.4015694 75.5009273,51.9627159 C75.5009273,53.5238623 74.3606226,54.6414869 72.7956961,54.6414869 C71.2307697,54.6414869 70.0791249,53.5238623 70.0791249,51.9627159" id="Fill-15" fill="#3B3838"></path>
                    <path d="M81.9124637,49.3448031 L81.9124637,54.5813846 L81.01786,54.5813846 L81.01786,53.7888414 C80.6335584,54.3344236 79.9846557,54.6406049 79.2462927,54.6406049 C77.8980871,54.6406049 77.0022234,53.9009818 77.0022234,52.3587355 L77.0022234,49.3448031 L77.9472273,49.3448031 L77.9472273,52.250375 C77.9472273,53.2772793 78.4600494,53.7888414 79.3546531,53.7888414 C80.3374572,53.7888414 80.9674598,53.1789989 80.9674598,52.0525542 L80.9674598,49.3448031 L81.9124637,49.3448031 Z" id="Fill-17" fill="#3B3838"></path>
                    <path d="M86.7575616,49.2965449 L86.7575616,50.2163487 C86.6781813,50.2037486 86.608881,50.2037486 86.5408407,50.2037486 C85.5265365,50.2037486 84.8977939,50.8261912 84.8977939,51.9727959 L84.8977939,54.5810066 L83.9527901,54.5810066 L83.9527901,49.3444251 L84.8587338,49.3444251 L84.8587338,50.2251687 C85.1926352,49.6128062 85.8415378,49.2965449 86.7575616,49.2965449" id="Fill-19" fill="#3B3838"></path>
                    <mask id="mask-2" fill="white">
                        <use xlink:href="#path-1"></use>
                    </mask>
                    <g id="Clip-22"></g>
                    <path d="M88.1663238,54.5808806 L89.139682,54.5808806 L89.139682,49.3442991 L88.1663238,49.3442991 L88.1663238,54.5808806 Z M87.9950127,47.7251924 C87.9950127,47.381211 88.2792333,47.1027498 88.6543007,47.1027498 C89.0293681,47.1027498 89.3122909,47.371131 89.3122909,47.7062923 C89.3122909,48.0616138 89.0397505,48.3388149 88.6543007,48.3388149 C88.2792333,48.3388149 87.9950127,48.0704338 87.9950127,47.7251924 L87.9950127,47.7251924 Z" id="Fill-21" fill="#3B3838" mask="url(#mask-2)"></path>
                    <path d="M91.6134956,51.5984484 L94.9588094,51.5984484 C94.860529,50.7177047 94.2015463,50.0952622 93.2855225,50.0952622 C92.3808388,50.0952622 91.711776,50.7076247 91.6134956,51.5984484 M95.844593,52.2788512 L91.6134956,52.2788512 C91.7306761,53.1986549 92.4690391,53.8110175 93.5022434,53.8110175 C94.1120859,53.8110175 94.623648,53.6031166 95.0066896,53.1784949 L95.5295917,53.7895974 C95.0570898,54.3439997 94.3388868,54.6413609 93.4732633,54.6413609 C91.7898963,54.6413609 90.6684917,53.5237363 90.6684917,51.9625899 C90.6684917,50.4115235 91.7798163,49.2964189 93.2855225,49.2964189 C94.7912287,49.2964189 95.8634931,50.3825434 95.8634931,51.99157 C95.8634931,52.0709503 95.8546731,52.1893908 95.844593,52.2788512" id="Fill-23" fill="#3B3838" mask="url(#mask-2)"></path>
                    <path d="M100.218071,49.2965449 L100.218071,50.2163487 C100.139951,50.2037486 100.06939,50.2037486 100.00135,50.2037486 C98.987046,50.2037486 98.3583034,50.8261912 98.3583034,51.9727959 L98.3583034,54.5810066 L97.4132995,54.5810066 L97.4132995,49.3444251 L98.3192432,49.3444251 L98.3192432,50.2251687 C98.6531446,49.6128062 99.3020473,49.2965449 100.218071,49.2965449" id="Fill-24" fill="#3B3838" mask="url(#mask-2)"></path>
                    <polygon id="Fill-25" fill="#3B3838" mask="url(#mask-2)" points="104.717802 54.5808806 105.701866 54.5808806 105.701866 47.6659722 104.717802 47.6659722"></polygon>
                    <path d="M112.823037,51.5670742 L112.823037,54.5810066 L111.878033,54.5810066 L111.878033,51.6754347 C111.878033,50.6497905 111.366471,50.1457884 110.470607,50.1457884 C109.467643,50.1457884 108.81748,50.7493309 108.81748,51.8833355 L108.81748,54.5810066 L107.872477,54.5810066 L107.872477,49.3444251 L108.77842,49.3444251 L108.77842,50.1357083 C109.162722,49.6027261 109.830525,49.2965449 110.657088,49.2965449 C111.928433,49.2965449 112.823037,50.0273479 112.823037,51.5670742" id="Fill-26" fill="#3B3838" mask="url(#mask-2)"></path>
                    <path d="M117.746633,54.2743214 C117.460612,54.5200224 117.02717,54.6409829 116.605069,54.6409829 C115.551704,54.6409829 114.950682,54.0576005 114.950682,53.0004561 L114.950682,50.1263843 L114.066158,50.1263843 L114.066158,49.3451811 L114.950682,49.3451811 L114.950682,48.1985764 L115.895686,48.1985764 L115.895686,49.3451811 L117.392572,49.3451811 L117.392572,50.1263843 L115.895686,50.1263843 L115.895686,52.961396 C115.895686,53.5233583 116.191787,53.8396196 116.712169,53.8396196 C116.98937,53.8396196 117.253971,53.7501592 117.450532,53.5939186 L117.746633,54.2743214 Z" id="Fill-27" fill="#3B3838" mask="url(#mask-2)"></path>
                    <path d="M119.416392,51.5984484 L122.761706,51.5984484 C122.663425,50.7177047 122.004443,50.0952622 121.088419,50.0952622 C120.183735,50.0952622 119.514672,50.7076247 119.416392,51.5984484 M123.64749,52.2788512 L119.416392,52.2788512 C119.533573,53.1986549 120.271936,53.8110175 121.30514,53.8110175 C121.914982,53.8110175 122.426544,53.6031166 122.809586,53.1784949 L123.332488,53.7895974 C122.859986,54.3439997 122.141783,54.6413609 121.27616,54.6413609 C119.592793,54.6413609 118.471388,53.5237363 118.471388,51.9625899 C118.471388,50.4115235 119.582713,49.2964189 121.088419,49.2964189 C122.594125,49.2964189 123.66639,50.3825434 123.66639,51.99157 C123.66639,52.0709503 123.65757,52.1893908 123.64749,52.2788512" id="Fill-28" fill="#3B3838" mask="url(#mask-2)"></path>
                    <polygon id="Fill-29" fill="#3B3838" mask="url(#mask-2)" points="125.215566 54.5808806 126.16057 54.5808806 126.16057 47.2501705 125.215566 47.2501705"></polygon>
                    <polygon id="Fill-30" fill="#3B3838" mask="url(#mask-2)" points="128.204298 54.5808806 129.149302 54.5808806 129.149302 47.2501705 128.204298 47.2501705"></polygon>
                    <path d="M131.199319,54.5808806 L132.172677,54.5808806 L132.172677,49.3442991 L131.199319,49.3442991 L131.199319,54.5808806 Z M131.02671,47.7251924 C131.02671,47.381211 131.310931,47.1027498 131.685998,47.1027498 C132.061065,47.1027498 132.343988,47.371131 132.343988,47.7062923 C132.343988,48.0616138 132.071448,48.3388149 131.685998,48.3388149 C131.310931,48.3388149 131.02671,48.0704338 131.02671,47.7251924 L131.02671,47.7251924 Z" id="Fill-31" fill="#3B3838" mask="url(#mask-2)"></path>
                    <path d="M138.247926,51.8252493 C138.247926,50.8071651 137.499483,50.1267623 136.456198,50.1267623 C135.404094,50.1267623 134.656911,50.8071651 134.656911,51.8252493 C134.656911,52.8319934 135.404094,53.5338163 136.456198,53.5338163 C137.499483,53.5338163 138.247926,52.8319934 138.247926,51.8252493 L138.247926,51.8252493 Z M139.171509,49.3442991 L139.171509,53.8689777 C139.171509,55.7174053 138.237846,56.5565688 136.466278,56.5565688 C135.511194,56.5565688 134.54729,56.2894477 133.976508,55.7753656 L134.43011,55.0445625 C134.912692,55.4591043 135.669955,55.7274854 136.437298,55.7274854 C137.667063,55.7274854 138.227766,55.152923 138.227766,53.9685181 L138.227766,53.5527164 C137.775424,54.0957786 137.096281,54.3641597 136.349098,54.3641597 C134.843392,54.3641597 133.701827,53.3359955 133.701827,51.8252493 C133.701827,50.3145031 134.843392,49.2964189 136.349098,49.2964189 C137.126521,49.2964189 137.834644,49.5837001 138.276906,50.1557424 L138.276906,49.3442991 L139.171509,49.3442991 Z" id="Fill-32" fill="#3B3838" mask="url(#mask-2)"></path>
                    <path d="M141.675518,51.5984484 L145.020832,51.5984484 C144.922551,50.7177047 144.263568,50.0952622 143.347545,50.0952622 C142.442861,50.0952622 141.773798,50.7076247 141.675518,51.5984484 M145.906615,52.2788512 L141.675518,52.2788512 C141.792698,53.1986549 142.531061,53.8110175 143.564266,53.8110175 C144.174108,53.8110175 144.68567,53.6031166 145.068712,53.1784949 L145.591614,53.7895974 C145.119112,54.3439997 144.400909,54.6413609 143.535285,54.6413609 C141.851918,54.6413609 140.730514,53.5237363 140.730514,51.9625899 C140.730514,50.4115235 141.841838,49.2964189 143.347545,49.2964189 C144.853251,49.2964189 145.925515,50.3825434 145.925515,51.99157 C145.925515,52.0709503 145.916695,52.1893908 145.906615,52.2788512" id="Fill-33" fill="#3B3838" mask="url(#mask-2)"></path>
                    <path d="M152.425,51.5670742 L152.425,54.5810066 L151.479996,54.5810066 L151.479996,51.6754347 C151.479996,50.6497905 150.968434,50.1457884 150.07257,50.1457884 C149.069606,50.1457884 148.419444,50.7493309 148.419444,51.8833355 L148.419444,54.5810066 L147.47444,54.5810066 L147.47444,49.3444251 L148.380383,49.3444251 L148.380383,50.1357083 C148.764685,49.6027261 149.432488,49.2965449 150.259051,49.2965449 C151.530396,49.2965449 152.425,50.0273479 152.425,51.5670742" id="Fill-34" fill="#3B3838" mask="url(#mask-2)"></path>
                    <path d="M153.96334,51.9627159 C153.96334,50.4015694 155.113725,49.2965449 156.717712,49.2965449 C157.652636,49.2965449 158.431319,49.6821065 158.84334,50.4116495 L158.125137,50.8765914 C157.789976,50.3625093 157.278414,50.1268883 156.707632,50.1268883 C155.684507,50.1268883 154.917164,50.8476113 154.917164,51.9627159 C154.917164,53.0992405 155.684507,53.8111435 156.707632,53.8111435 C157.278414,53.8111435 157.789976,53.5717425 158.125137,53.0601804 L158.84334,53.5137822 C158.431319,54.2458453 157.652636,54.6414869 156.717712,54.6414869 C155.113725,54.6414869 153.96334,53.5238623 153.96334,51.9627159" id="Fill-35" fill="#3B3838" mask="url(#mask-2)"></path>
                    <path d="M160.689248,51.5984484 L164.034562,51.5984484 C163.936281,50.7177047 163.277299,50.0952622 162.361275,50.0952622 C161.456591,50.0952622 160.787528,50.7076247 160.689248,51.5984484 M164.920345,52.2788512 L160.689248,52.2788512 C160.806429,53.1986549 161.544792,53.8110175 162.577996,53.8110175 C163.187838,53.8110175 163.6994,53.6031166 164.082442,53.1784949 L164.605344,53.7895974 C164.132842,54.3439997 163.414639,54.6413609 162.549016,54.6413609 C160.865649,54.6413609 159.744244,53.5237363 159.744244,51.9625899 C159.744244,50.4115235 160.855569,49.2964189 162.361275,49.2964189 C163.866981,49.2964189 164.939246,50.3825434 164.939246,51.99157 C164.939246,52.0709503 164.930426,52.1893908 164.920345,52.2788512" id="Fill-36" fill="#3B3838" mask="url(#mask-2)"></path>
                    <path d="M5.2831061,50.2013546 C5.43808674,49.2172906 4.86604439,48.6565882 3.6060392,48.6565882 L1.93401231,48.6565882 L1.4463903,51.748641 L3.11841719,51.748641 C4.37842238,51.748641 5.12812547,51.1854187 5.2831061,50.2013546 M6.26465015,50.2013546 C6.03028918,51.6969808 4.80682414,52.6016645 3.01635677,52.6016645 L1.31282975,52.6016645 L0.9839684,54.6869731 L-9.56521739e-05,54.6869731 L1.08350881,47.8023047 L3.77109988,47.8023047 C5.56156725,47.8023047 6.50027112,48.7082485 6.26465015,50.2013546" id="Fill-37" fill="#3B3838" mask="url(#mask-2)"></path>
                    <path d="M11.4854816,52.0810303 C11.6606224,50.9684458 11.0243197,50.2515028 10.0213556,50.2515028 C9.01713148,50.2515028 8.1477279,50.9684458 7.97258718,52.0810303 C7.79744646,53.1910949 8.4400491,53.9168579 9.44427324,53.9168579 C10.4484974,53.9168579 11.3103409,53.1910949 11.4854816,52.0810303 M7.01624324,52.0810303 C7.26194425,50.5274439 8.5849497,49.4249394 10.1511361,49.4249394 C11.7148026,49.4249394 12.6837466,50.5274439 12.4380456,52.0810303 C12.1936046,53.6346167 10.8768991,54.7446813 9.3132327,54.7446813 C7.74830625,54.7446813 6.77180223,53.6346167 7.01624324,52.0810303" id="Fill-38" fill="#3B3838" mask="url(#mask-2)"></path>
                    <polygon id="Fill-39" fill="#3B3838" mask="url(#mask-2)" points="22.1433615 49.4750876 19.3738701 54.6864691 18.4679264 54.6864691 17.5846628 50.7350928 15.4376139 54.6864691 14.5329302 54.6864691 13.4140456 49.4750876 14.3111693 49.4750876 15.1742728 53.6230247 17.399442 49.4750876 18.1957653 49.4750876 19.0865889 53.6444448 21.296638 49.4750876"></polygon>
                    <path d="M23.2979043,51.7166368 L26.6419581,51.7166368 C26.6835382,50.8409332 26.1215759,50.2210107 25.2068121,50.2210107 C24.3021284,50.2210107 23.5373053,50.8308532 23.2979043,51.7166368 M27.4219013,52.3945196 L23.1920639,52.3945196 C23.1668637,53.3092834 23.8082064,53.9166059 24.8414106,53.9166059 C25.4512532,53.9166059 25.9955754,53.7124851 26.4453972,53.2903833 L26.871279,53.9002258 C26.3118367,54.4508481 25.5457535,54.7444293 24.68139,54.7444293 C22.9980231,54.7444293 22.0504991,53.6343647 22.2949402,52.0807783 C22.5381212,50.537272 23.8245865,49.4246874 25.3302927,49.4246874 C26.8359989,49.4246874 27.7406826,50.5082919 27.4874215,52.1097585 C27.4760815,52.1866188 27.4445814,52.3075793 27.4219013,52.3945196" id="Fill-40" fill="#3B3838" mask="url(#mask-2)"></path>
                    <path d="M32.2606992,49.4244354 L32.1170586,50.3417192 C32.0414583,50.3316391 31.970898,50.3316391 31.9041177,50.3316391 C30.8898135,50.3316391 30.1627906,50.9490417 29.9838698,52.0906064 L29.5756281,54.6874771 L28.6293642,54.6874771 L29.4496276,49.4748356 L30.3543113,49.4748356 L30.2157108,50.3505392 C30.6478926,49.7406967 31.3459354,49.4244354 32.2606992,49.4244354" id="Fill-41" fill="#3B3838" mask="url(#mask-2)"></path>
                    <path d="M33.7168872,51.7166368 L37.060941,51.7166368 C37.1025211,50.8409332 36.5405588,50.2210107 35.6257951,50.2210107 C34.7211113,50.2210107 33.9562882,50.8308532 33.7168872,51.7166368 M37.8408842,52.3945196 L33.6110468,52.3945196 C33.5858467,53.3092834 34.2271893,53.9166059 35.2603935,53.9166059 C35.8702361,53.9166059 36.4145583,53.7124851 36.8643802,53.2903833 L37.2902619,53.9002258 C36.7308196,54.4508481 35.9647364,54.7444293 35.1003729,54.7444293 C33.417006,54.7444293 32.4694821,53.6343647 32.7139231,52.0807783 C32.9571041,50.537272 34.2435694,49.4246874 35.7492756,49.4246874 C37.2549818,49.4246874 38.1596655,50.5082919 37.9064044,52.1097585 C37.8950644,52.1866188 37.8635643,52.3075793 37.8408842,52.3945196" id="Fill-42" fill="#3B3838" mask="url(#mask-2)"></path>
                    <path d="M43.4470253,52.0810303 C43.622166,50.9684458 42.9770433,50.2515028 41.9828992,50.2515028 C40.9786751,50.2515028 40.1092715,50.9684458 39.9341308,52.0810303 C39.7589901,53.1910949 40.4015927,53.9168579 41.4058169,53.9168579 C42.3999609,53.9168579 43.2718845,53.1910949 43.4470253,52.0810303 L43.4470253,52.0810303 Z M45.1190521,47.390031 L43.9711874,54.6867211 L43.0652437,54.6867211 L43.1950242,53.8614177 C42.6809421,54.4511001 41.9627391,54.7446813 41.195396,54.7446813 C39.6707897,54.7446813 38.7270458,53.6736769 38.9777869,52.0810303 C39.2285279,50.4883838 40.5086932,49.4249394 42.0332994,49.4249394 C42.7716625,49.4249394 43.376465,49.7021406 43.7229664,50.2615829 L44.1753083,47.390031 L45.1190521,47.390031 Z" id="Fill-43" fill="#3B3838" mask="url(#mask-2)"></path>
                    <path d="M53.7500877,52.0810303 C53.9252284,50.9684458 53.2801057,50.2515028 52.2758816,50.2515028 C51.2842575,50.2515028 50.4148539,50.9684458 50.2397132,52.0810303 C50.0645725,53.1910949 50.7071752,53.9168579 51.6987992,53.9168579 C52.7030234,53.9168579 53.574947,53.1910949 53.7500877,52.0810303 M54.7051716,52.0810303 C54.4544306,53.6736769 53.1730053,54.7446813 51.648399,54.7446813 C50.8810559,54.7446813 50.2598733,54.4511001 49.9272319,53.8614177 L49.7974514,54.6867211 L48.8927677,54.6867211 L50.0418924,47.390031 L50.9868963,47.390031 L50.5345544,50.2615829 C51.0549366,49.7021406 51.7479394,49.4249394 52.4863025,49.4249394 C54.0109088,49.4249394 54.9559126,50.4883838 54.7051716,52.0810303" id="Fill-44" fill="#3B3838" mask="url(#mask-2)"></path>
                    <path d="M61.1335921,49.4750876 L57.702598,55.2081112 C57.0650353,56.3080958 56.4098326,56.6508172 55.6135094,56.6508172 C55.1120273,56.6508172 54.6269253,56.4844965 54.3509842,56.1707552 L54.8663263,55.4638923 C55.0855672,55.7070733 55.3867084,55.8481939 55.7420299,55.8481939 C56.1931117,55.8481939 56.5118931,55.640293 56.8621745,55.0392705 L57.0864554,54.677649 L55.6034293,49.4750876 L56.5874934,49.4750876 L57.7504782,53.6444448 L60.2074883,49.4750876 L61.1335921,49.4750876 Z" id="Fill-45" fill="#3B3838" mask="url(#mask-2)"></path>
                </g>
            </g>
        </g>
    </g>
</svg>